<svg xmlns="http://www.w3.org/2000/svg" width="600" height="600" viewBox="-8 -110 96 120">
  <g stroke="#ddd" stroke-width="0.5">
    <line x1="-8" y1="-110" x2="-8" y2="10"/>
    <line x1="12" y1="-110" x2="12" y2="10"/>
    <line x1="32" y1="-110" x2="32" y2="10"/>
    <line x1="52" y1="-110" x2="52" y2="10"/>
    <line x1="72" y1="-110" x2="72" y2="10"/>
    <line x1="-8" y1="10" x2="88" y2="10"/>
    <line x1="-8" y1="-40" x2="88" y2="-40"/>
    <line x1="-8" y1="-90" x2="88" y2="-90"/>
  </g>
  <g stroke="#000" stroke-width="1">
    <line x1="-8" y1="0" x2="88" y2="0"/>
    <line x1="0" y1="-110" x2="0" y2="10"/>
  </g>
  <line x1="0" y1="-0" x2="0" y2="-100" stroke="#888" stroke-width="1.5"/>
  <line x1="20" y1="-100" x2="20" y2="-80" stroke="#888" stroke-width="1.5"/>
  <polyline fill="none" stroke="blue" stroke-width="2" points="20,-0 19.688720703125,-0.001220703125 19.3798828125,-0.0048828125 19.073486328125,-0.010986328125 18.76953125,-0.01953125 18.468017578125,-0.030517578125 18.1689453125,-0.0439453125 17.872314453125,-0.059814453125 17.578125,-0.078125 17.286376953125,-0.098876953125 16.9970703125,-0.1220703125 16.710205078125,-0.147705078125 16.42578125,-0.17578125 16.143798828125,-0.206298828125 15.8642578125,-0.2392578125 15.587158203125,-0.274658203125 15.3125,-0.3125 15.040283203125,-0.352783203125 14.7705078125,-0.3955078125 14.503173828125,-0.440673828125 14.23828125,-0.48828125 13.975830078125,-0.538330078125 13.7158203125,-0.5908203125 13.458251953125,-0.645751953125 13.203125,-0.703125 12.950439453125,-0.762939453125 12.7001953125,-0.8251953125 12.452392578125,-0.889892578125 12.20703125,-0.95703125 11.964111328125,-1.026611328125 11.7236328125,-1.0986328125 11.25,-1.25 10.7861328125,-1.4111328125 10.33203125,-1.58203125 9.8876953125,-1.7626953125 9.453125,-1.953125 9.0283203125,-2.1533203125 8.61328125,-2.36328125 8.2080078125,-2.5830078125 7.8125,-2.8125 7.4267578125,-3.0517578125 7.05078125,-3.30078125 6.6845703125,-3.5595703125 6.328125,-3.828125 5.9814453125,-4.1064453125 5.64453125,-4.39453125 5.3173828125,-4.6923828125 5,-5 4.6923828125,-5.3173828125 4.39453125,-5.64453125 4.1064453125,-5.9814453125 3.828125,-6.328125 3.5595703125,-6.6845703125 3.30078125,-7.05078125 3.0517578125,-7.4267578125 2.8125,-7.8125 2.5830078125,-8.2080078125 2.36328125,-8.61328125 2.1533203125,-9.0283203125 1.953125,-9.453125 1.7626953125,-9.8876953125 1.58203125,-10.33203125 1.4111328125,-10.7861328125 1.25,-11.25 1.0986328125,-11.7236328125 1.026611328125,-11.964111328125 0.95703125,-12.20703125 0.889892578125,-12.452392578125 0.8251953125,-12.7001953125 0.762939453125,-12.950439453125 0.703125,-13.203125 0.645751953125,-13.458251953125 0.5908203125,-13.7158203125 0.538330078125,-13.975830078125 0.48828125,-14.23828125 0.440673828125,-14.503173828125 0.3955078125,-14.7705078125 0.352783203125,-15.040283203125 0.3125,-15.3125 0.274658203125,-15.587158203125 0.2392578125,-15.8642578125 0.206298828125,-16.143798828125 0.17578125,-16.42578125 0.147705078125,-16.710205078125 0.1220703125,-16.9970703125 0.098876953125,-17.286376953125 0.078125,-17.578125 0.059814453125,-17.872314453125 0.0439453125,-18.1689453125 0.030517578125,-18.468017578125 0.01953125,-18.76953125 0.010986328125,-19.073486328125 0.0048828125,-19.3798828125 0.001220703125,-19.688720703125 0,-20 0,-20 0,-96 0.015625,-96.484375 0.0625,-96.9375 0.140625,-97.359375 0.25,-97.75 0.390625,-98.109375 0.5625,-98.4375 0.765625,-98.734375 1,-99 1.265625,-99.234375 1.5625,-99.4375 1.890625,-99.609375 2.25,-99.75 2.640625,-99.859375 3.0625,-99.9375 3.515625,-99.984375 4,-100 4,-100 16,-100 16.484375,-99.984375 16.9375,-99.9375 17.359375,-99.859375 17.75,-99.75 18.109375,-99.609375 18.4375,-99.4375 18.734375,-99.234375 19,-99 19.234375,-98.734375 19.4375,-98.4375 19.609375,-98.109375 19.75,-97.75 19.859375,-97.359375 19.9375,-96.9375 19.984375,-96.484375 20,-96 20,-96 20,-84 20.015625,-83.515625 20.0625,-83.0625 20.140625,-82.640625 20.25,-82.25 20.390625,-81.890625 20.5625,-81.5625 20.765625,-81.265625 21,-81 21.265625,-80.765625 21.5625,-80.5625 21.890625,-80.390625 22.25,-80.25 22.640625,-80.140625 23.0625,-80.0625 23.515625,-80.015625 24,-80 24,-80 36,-80 36.484375,-79.984375 36.9375,-79.9375 37.359375,-79.859375 37.75,-79.75 38.109375,-79.609375 38.4375,-79.4375 38.734375,-79.234375 39,-79 39.234375,-78.734375 39.4375,-78.4375 39.609375,-78.109375 39.75,-77.75 39.859375,-77.359375 39.9375,-76.9375 39.984375,-76.484375 40,-76 40,-76 40,-64 40.015625,-63.515625 40.0625,-63.0625 40.140625,-62.640625 40.25,-62.25 40.390625,-61.890625 40.5625,-61.5625 40.765625,-61.265625 41,-61 41.265625,-60.765625 41.5625,-60.5625 41.890625,-60.390625 42.25,-60.25 42.640625,-60.140625 43.0625,-60.0625 43.515625,-60.015625 44,-60 44,-60 56,-60 56.484375,-59.984375 56.9375,-59.9375 57.359375,-59.859375 57.75,-59.75 58.109375,-59.609375 58.4375,-59.4375 58.734375,-59.234375 59,-59 59.234375,-58.734375 59.4375,-58.4375 59.609375,-58.109375 59.75,-57.75 59.859375,-57.359375 59.9375,-56.9375 59.984375,-56.484375 60,-56 60,-56 60,-44 60.015625,-43.515625 60.0625,-43.0625 60.140625,-42.640625 60.25,-42.25 60.390625,-41.890625 60.5625,-41.5625 60.765625,-41.265625 61,-41 61.265625,-40.765625 61.5625,-40.5625 61.890625,-40.390625 62.25,-40.25 62.640625,-40.140625 63.0625,-40.0625 63.515625,-40.015625 64,-40 64,-40 76,-40 76.484375,-39.984375 76.9375,-39.9375 77.359375,-39.859375 77.75,-39.75 78.109375,-39.609375 78.4375,-39.4375 78.734375,-39.234375 79,-39 79.234375,-38.734375 79.4375,-38.4375 79.609375,-38.109375 79.75,-37.75 79.859375,-37.359375 79.9375,-36.9375 79.984375,-36.484375 80,-36 80,-36 80,-8 79.9921875,-7.5078125 79.96875,-7.03125 79.9296875,-6.5703125 79.875,-6.125 79.8046875,-5.6953125 79.71875,-5.28125 79.6171875,-4.8828125 79.5,-4.5 79.3671875,-4.1328125 79.21875,-3.78125 79.0546875,-3.4453125 78.875,-3.125 78.6796875,-2.8203125 78.46875,-2.53125 78.2421875,-2.2578125 78,-2 77.7421875,-1.7578125 77.46875,-1.53125 77.1796875,-1.3203125 76.875,-1.125 76.5546875,-0.9453125 76.21875,-0.78125 75.8671875,-0.6328125 75.5,-0.5 75.1171875,-0.3828125 74.71875,-0.28125 74.3046875,-0.1953125 73.875,-0.125 73.4296875,-0.0703125 72.96875,-0.03125 72.4921875,-0.0078125 72,-0 72,-0 "/>
</svg>
