<?xml version="1.0" encoding="UTF-8"?>
<svg width="120" height="115.26945711400026" viewBox="-10 -7.63472855700013 120 115.26945711400026" xmlns="http://www.w3.org/2000/svg">
<title>Hexagon with large radius (50) - should be circular</title>
<path d="M 90,50 70,84.64101615137754 30.000000000000007,84.64101615137756 10,50.00000000000001 29.999999999999982,15.358983848622465 70,15.358983848622458 90,50 " stroke="#cccccc" stroke-width="1" fill="none" />
<path d="M 85.88314677411236,30.132014644024345 89.53686980147639,43.21041015439247 89.94847030512568,47.730569635794446 89.94847030512568,52.26943036420555 89.53686980147639,56.78958984560752 75.64839218831118,80.8451387113926 71.93961950008463,83.46167494446435 68.00885080504106,85.7311053086699 63.888477613165215,87.63472855700013 36.11152238683481,87.63472855700013 31.99114919495894,85.7311053086699 28.060380499915393,83.46167494446435 24.35160781168884,80.84513871139261 10.463130198523615,56.78958984560754 10.051529694874318,52.26943036420555 10.051529694874318,47.73056963579445 10.463130198523608,43.210410154392484 24.351607811688808,19.15486128860742 28.06038049991538,16.538325055535665 31.991149194958926,14.268894691330118 36.11152238683478,12.365271442999884 63.88847761316521,12.36527144299987 68.00885080504106,14.268894691330097 71.93961950008462,16.538325055535644 75.64839218831118,19.154861288607393 85.1477534273483,28.8582760038809 85.88314677411236,30.132014644024345 " stroke="blue" stroke-width="2" fill="none" />
<circle cx="53.9597795176138" cy="47.745270566367765" r="2" fill="red" />
</svg>
