<?xml version="1.0" encoding="UTF-8"?>
<svg width="125.79967215644896" height="122.22140284658963" viewBox="-10.79967215644897 -13.301270189221931 125.79967215644896 122.22140284658963" xmlns="http://www.w3.org/2000/svg">
<title>Hexagon with large radius (50) - should be circular</title>
<path d="M 90,50 70,84.64101615137754 30.000000000000007,84.64101615137756 10,50.00000000000001 29.999999999999982,15.358983848622465 70,15.358983848622458 90,50 " stroke="#cccccc" stroke-width="1" fill="none" />
<path d="M 65,6.698729810778069 76.06734274159511,17.938583944169594 78.97227581197987,22.34118840251265 81.43619955975971,27.004946750150708 83.43584967123154,31.88582388358973 84.95234549413017,36.93773466854706 85.9713683083308,42.112979074773286 86.48329652288865,47.36269255868618 86.48329652288865,52.63730744131383 85.9713683083308,57.88702092522673 84.95234549413016,63.06226533145295 83.43584967123152,68.11417611641028 81.4361995597597,72.99505324984929 78.97227581197986,77.65881159748736 76.0673427415951,82.06141605583042 77.99125993423056,78.42010240695237 83.25511122627388,69.19984741842018 88.6081606296913,60.03109098350102 90.79967215644898,56.54427299546205 88.43937138790164,61.26132105988031 85.63240005562525,65.72702079226445 82.40526152105241,69.89920715419896 78.7884263550761,73.73848645404082 74.8160446355912,77.2086083012876 70.52562350321185,80.27680788196515 65.95767301967683,82.91411532327899 61.15532367273963,85.09562922651432 56.16391913905409,86.80075178549379 51.030588150179135,88.01338327060924 45.80379950413447,88.72207404211377 40.53290442407824,88.9201326573677 35.26767058514615,88.6056890512925 39.38309930453928,88.45119339045341 50.00000000000001,88.39969483684038 60.616900695460735,88.4511933904534 64.73232941485387,88.60568905129247 59.46709557592178,88.92013265736767 54.196200495865554,88.72207404211375 48.96941184982087,88.01338327060922 43.836080860945934,86.80075178549376 38.84467632726041,85.0956292265143 34.0423269803232,82.91411532327898 29.47437649678817,80.27680788196514 25.18395536440883,77.20860830128758 21.211573644923917,73.73848645404081 17.59473847894762,69.89920715419896 14.367599944374767,65.72702079226447 11.560628612098384,61.261321059880316 9.200327843551058,56.54427299546208 11.39183937030873,60.03109098350103 16.74488877372613,69.19984741842018 22.008740065769455,78.42010240695237 23.9326572584049,82.06141605583042 21.027724188020137,77.65881159748736 18.563800440240293,72.99505324984929 16.564150328768463,68.11417611641028 15.04765450586983,63.06226533145294 14.028631691669204,57.88702092522671 13.516703477111335,52.63730744131382 13.516703477111335,47.36269255868618 14.028631691669204,42.112979074773264 15.047654505869822,36.93773466854706 16.564150328768456,31.885823883589726 18.563800440240286,27.0049467501507 21.027724188020123,22.341188402512653 23.932657258404895,17.938583944169572 22.008740065769445,21.579897593047633 16.744888773726114,30.80015258157983 11.391839370308707,39.968909016499 9.20032784355103,43.45572700453796 11.56062861209837,38.738678940119705 14.367599944374746,34.27297920773556 17.594738478947598,30.10079284580106 21.211573644923895,26.261513545959204 25.183955364408817,22.791391698712438 29.474376496788153,19.723192118034873 34.04232698032317,17.08588467672105 38.84467632726038,14.904370773485724 43.836080860945906,13.199248214506262 48.96941184982086,11.986616729390796 54.196200495865526,11.277925957886275 59.46709557592175,11.079867342632348 64.73232941485384,11.394310948707549 60.616900695460714,11.548806609546636 49.999999999999986,11.600305163159664 39.38309930453926,11.548806609546634 35.267670585146135,11.394310948707542 40.53290442407823,11.07986734263234 45.803799504134446,11.277925957886268 51.03058815017912,11.98661672939079 56.16391913905407,13.199248214506248 61.15532367273961,14.904370773485716 65.9576730196768,17.085884676721037 70.52562350321183,19.72319211803486 74.81604463559118,22.79139169871243 78.7884263550761,26.26151354595919 82.40526152105241,30.10079284580106 85.63240005562525,34.272979207735546 88.43937138790163,38.738678940119684 90.79967215644896,43.45572700453795 95,58.66025403784439 65,6.698729810778069 " stroke="blue" stroke-width="2" fill="none" />
<circle cx="49.75632811970396" cy="49.80106622027721" r="2" fill="red" />
</svg>
