<?xml version="1.0" encoding="UTF-8"?>
<svg width="160" height="100" viewBox="-20 -20 160 100" xmlns="http://www.w3.org/2000/svg">
<title>Rectangle with large radius (40) - should be circular</title>
<path d="M 0,0 120,0 120,60 0,60 0,0 " stroke="#cccccc" stroke-width="1" fill="none" />
<path d="M 0,40.00000000000001 1.7223865707116417,28.388612909821518 3.0448186995485287,24.692662705396415 4.723149426065795,21.144130526960094 6.741215507898183,17.77719067921592 9.079581865490518,14.62426863345419 11.71572875253809,11.715728752538102 14.624268633454165,9.079581865490532 17.777190679215913,6.74121550789819 21.144130526960087,4.7231494260658025 24.692662705396387,3.044818699548543 28.388612909821504,1.7223865707116488 32.19638711935485,0.7685887838707899 36.07931438681758,0.19261093311212107 39.99999999999999,0 80,0 83.92068561318243,0.19261093311212818 87.80361288064513,0.7685887838707828 91.6113870901785,1.7223865707116417 95.3073372946036,3.0448186995485287 98.85586947303992,4.7231494260658025 102.2228093207841,6.74121550789819 105.37573136654582,9.079581865490521 108.2842712474619,11.715728752538102 110.92041813450948,14.624268633454179 113.25878449210181,17.777190679215913 115.2768505739342,21.14413052696009 116.95518130045147,24.69266270539641 118.27761342928835,28.38861290982151 118.27761342928835,31.611387090178493 116.95518130045147,35.30733729460359 115.27685057393421,38.8558694730399 113.25878449210181,42.22280932078409 110.92041813450948,45.37573136654582 108.2842712474619,48.2842712474619 105.37573136654582,50.920418134509475 102.2228093207841,53.25878449210181 98.85586947303992,55.2768505739342 95.3073372946036,56.95518130045147 91.6113870901785,58.27761342928836 87.80361288064513,59.23141121612922 83.92068561318243,59.80738906688787 80,60 40,60 36.07931438681757,59.80738906688788 32.196387119354874,59.23141121612922 28.388612909821514,58.27761342928836 24.692662705396412,56.95518130045147 21.14413052696009,55.276850573934205 17.77719067921592,53.25878449210182 14.624268633454186,50.92041813450948 11.715728752538102,48.2842712474619 9.079581865490521,45.37573136654582 6.74121550789819,42.22280932078409 4.7231494260658025,38.85586947303992 3.0448186995485287,35.3073372946036 1.7223865707116488,31.611387090178496 0,20.000000000000004 0,40.00000000000001 " stroke="blue" stroke-width="2" fill="none" />
<circle cx="56.94915254237287" cy="30.16949152542373" r="2" fill="red" />
</svg>
