<?xml version="1.0" encoding="UTF-8"?>
<svg width="182.24665744397674" height="123.33900630892558" viewBox="-31.64233810102633 -31.66950315446279 182.24665744397674 123.33900630892558" xmlns="http://www.w3.org/2000/svg">
<title>Rectangle with large radius (40) - should be circular</title>
<path d="M 0,0 120,0 120,60 0,60 0,0 " stroke="#cccccc" stroke-width="1" fill="none" />
<path d="M -11.64233810102633,30.70622622912701 -10.60431934295043,18.920643644268054 -9.488990034697824,15.124456199001184 -8.004073006482724,11.457029307464591 -6.16409724204026,7.95424644640779 -3.987065752613926,4.650380153790142 -1.4942794287583894,1.5777566934475473 1.2898713755427416,-1.2335602371666923 4.338145487225095,-3.7560636614450864 7.620717451972116,-5.965072462175801 11.10546935761835,-7.838972870827195 14.758305087817838,-9.359429944745063 18.54348393120236,-10.51156696309101 22.423970281872638,-11.284110986244766 26.36179600962204,-11.669503154462792 30.318431954327068,-11.663972646589887 34.25516490966418,-11.267573575184148 38.13347640760409,-10.484184457059374 41.91541959751282,-9.321470264425667 45.563990532335254,-7.790807427933618 49.043490229056644,-5.9071725254207585 70.95650977094334,-5.907172525420751 74.43600946766475,-7.790807427933611 78.08458040248716,-9.321470264425667 81.86652359239591,-10.484184457059381 85.7448350903358,-11.26757357518414 89.68156804567295,-11.663972646589887 93.63820399037793,-11.669503154462792 97.57602971812734,-11.284110986244773 101.45651606879763,-10.511566963091017 105.24169491218215,-9.359429944745063 108.89453064238164,-7.838972870827195 112.37928254802789,-5.965072462175801 115.66185451277491,-3.7560636614450793 118.71012862445725,-1.2335602371666958 121.49427942875839,1.5777566934475509 123.98706575261392,4.650380153790138 126.16409724204026,7.954246446407797 128.0040730064827,11.457029307464605 129.48899003469782,15.124456199001195 130.60431934295042,18.920643644268047 130.60431934295042,41.07935635573195 129.48899003469782,44.87554380099881 128.0040730064827,48.542970692535405 126.16409724204026,52.045753553592206 123.98706575261392,55.34961984620986 121.49427942875838,58.42224330655246 118.71012862445725,61.2335602371667 115.66185451277491,63.75606366144508 112.37928254802787,65.96507246217581 108.89453064238164,67.8389728708272 105.24169491218214,69.35942994474506 101.45651606879761,70.51156696309101 97.57602971812733,71.28411098624477 93.63820399037793,71.66950315446279 89.68156804567292,71.66397264658988 85.74483509033578,71.26757357518414 81.86652359239591,70.48418445705937 78.08458040248716,69.32147026442567 74.43600946766475,67.79080742793361 70.95650977094334,65.90717252542075 49.04349022905666,65.90717252542075 45.563990532335254,67.79080742793361 41.91541959751282,69.32147026442567 38.13347640760409,70.48418445705937 34.25516490966421,71.26757357518414 30.31843195432706,71.66397264658988 26.36179600962207,71.66950315446279 22.423970281872663,71.28411098624477 18.54348393120238,70.51156696309101 14.758305087817853,69.35942994474506 11.105469357618357,67.83897287082719 7.620717451972123,65.96507246217581 4.338145487225102,63.75606366144508 1.2898713755427593,61.233560237166714 -1.4942794287583716,58.422243306552474 -3.987065752613912,55.349619846209876 -6.164097242040246,52.045753553592235 -8.004073006482717,48.54297069253542 -9.488990034697817,44.87554380099884 -10.604319342950422,41.07935635573195 -11.64233810102633,29.293773770873 -11.64233810102633,30.70622622912701 " stroke="blue" stroke-width="2" fill="none" />
<circle cx="57.41051789996289" cy="30.00850874974852" r="2" fill="red" />
</svg>
