<?xml version="1.0" encoding="UTF-8"?>
<svg width="174.39581492839875" height="174.39581492839875" viewBox="-37.19790746419938 -37.19790746419938 174.39581492839875 174.39581492839875" xmlns="http://www.w3.org/2000/svg">
<title>Square with large radius (60) - should be circular</title>
<path d="M 0,0 100,0 100,100 0,100 0,0 " stroke="#cccccc" stroke-width="1" fill="none" />
<path d="M -16.639862149277654,52.970403456995 -17.197907464199382,35.722591537046135 -16.278252113101132,30.02628535816917 -14.815681887968992,24.444658499907096 -12.823722991719116,19.029331196413224 -10.32079754164078,13.830385703366986 -7.330053197203583,8.89590312516971 -3.879149084908221,4.271518749270733 -1.4210854715202004E-14,0 4.27151874927074,-3.879149084908228 8.895903125169696,-7.3300531972035685 13.83038570336695,-10.320797541640758 19.029331196413207,-12.823722991719102 24.444658499907078,-14.815681887968992 30.026285358169176,-16.278252113101132 35.72259153704612,-17.197907464199382 64.27740846295384,-17.197907464199382 69.97371464183081,-16.278252113101132 75.55534150009288,-14.815681887969 80.97066880358679,-12.823722991719109 86.16961429663303,-10.32079754164078 91.1040968748303,-7.330053197203576 95.72848125072927,-3.879149084908221 100,-7.105427357601002E-15 103.87914908490822,4.271518749270726 107.33005319720357,8.895903125169689 110.32079754164077,13.830385703366968 112.82372299171911,19.029331196413207 114.81568188796899,24.444658499907103 116.27825211310113,30.026285358169176 117.19790746419937,35.72259153704613 117.19790746419937,64.27740846295386 116.27825211310113,69.97371464183082 114.81568188796899,75.5553415000929 112.82372299171911,80.97066880358679 110.32079754164077,86.16961429663303 107.33005319720357,91.1040968748303 103.87914908490822,95.72848125072927 100,100 95.72848125072927,103.87914908490822 91.1040968748303,107.33005319720357 86.16961429663303,110.32079754164079 80.97066880358679,112.82372299171911 75.55534150009288,114.81568188796899 69.97371464183081,116.27825211310113 64.27740846295386,117.19790746419937 35.72259153704615,117.19790746419937 30.026285358169176,116.27825211310113 24.444658499907106,114.81568188796899 19.02933119641322,112.82372299171911 13.830385703366986,110.32079754164079 8.89590312516971,107.33005319720358 4.271518749270733,103.87914908490822 0,100 -3.8791490849082138,95.72848125072929 -7.330053197203576,91.1040968748303 -10.320797541640772,86.16961429663303 -12.823722991719109,80.97066880358679 -14.815681887968992,75.55534150009292 -16.278252113101132,69.97371464183082 -17.197907464199382,64.27740846295387 -16.639862149277654,47.02959654300501 -16.639862149277654,52.970403456995 " stroke="blue" stroke-width="2" fill="none" />
<circle cx="46.82667323098678" cy="50.04714926122213" r="2" fill="red" />
</svg>
