<?xml version="1.0" encoding="UTF-8"?>
<svg width="140" height="140" viewBox="-20 -20 140 140" xmlns="http://www.w3.org/2000/svg">
<title>Square with large radius (60) - should be circular</title>
<path d="M 0,0 100,0 100,100 0,100 0,0 " stroke="#cccccc" stroke-width="1" fill="none" />
<path d="M 0,60.00000000000001 2.583579856067466,42.58291936473228 4.567228049322786,37.038994058094616 7.084724139098697,31.716195790440143 10.11182326184727,26.66578601882388 13.619372798235773,21.936402950181282 17.57359312880714,17.573593128807154 21.936402950181247,13.619372798235801 26.665786018823866,10.111823261847285 31.71619579044013,7.084724139098704 37.03899405809458,4.567228049322807 42.58291936473225,2.583579856067473 57.41708063526774,2.583579856067466 62.96100594190539,4.567228049322793 68.28380420955986,7.084724139098704 73.33421398117613,10.111823261847285 78.06359704981872,13.61937279823578 82.42640687119285,17.573593128807154 86.38062720176421,21.936402950181268 89.88817673815271,26.665786018823866 92.91527586090129,31.716195790440135 95.4327719506772,37.038994058094616 97.41642014393253,42.58291936473226 97.41642014393253,57.41708063526774 95.4327719506772,62.961005941905384 92.9152758609013,68.28380420955986 89.88817673815271,73.33421398117613 86.38062720176421,78.06359704981872 82.42640687119285,82.42640687119285 78.06359704981872,86.38062720176421 73.33421398117613,89.88817673815271 68.28380420955986,92.91527586090129 62.96100594190539,95.4327719506772 57.41708063526774,97.41642014393253 42.58291936473227,97.41642014393253 37.038994058094616,95.4327719506772 31.71619579044014,92.9152758609013 26.66578601882388,89.88817673815274 21.936402950181275,86.38062720176423 17.573593128807154,82.42640687119285 13.61937279823578,78.06359704981872 10.111823261847277,73.33421398117613 7.084724139098704,68.28380420955988 4.567228049322793,62.9610059419054 2.583579856067473,57.417080635267745 0,40.00000000000001 0,60.00000000000001 " stroke="blue" stroke-width="2" fill="none" />
<circle cx="46.80851063829786" cy="50.21276595744682" r="2" fill="red" />
</svg>
